<mxfile host="app.diagrams.net" modified="2024-01-25T04:06:02.415Z" agent="Mozilla/5.0 (X11; Linux x86_64) AppleWebKit/537.36 (KHTML, like Gecko) Chrome/119.0.0.0 Safari/537.36" version="22.1.21" etag="z4Jb_lVYlP4LEf6jh4b0" type="github">
  <diagram name="Page-1" id="G33ckitVu60FHr2_0ZSI">
    <mxGraphModel>
      <root>
        <mxCell id="0" />
        <mxCell id="1" parent="0" />
      </root>
    </mxGraphModel>
  </diagram>
</mxfile>
